Coordinates
nRows=10
nColumns=38

# SIMM Motion File Header:
name Coordinates
datacolumns 38
datarows 10
otherdata 1
range 1.85100000000000000000 1.86000000000000010000

Units are S.I. units (second, meters, Newtons, ...)
Angles are in degrees.

endheader
time	pelvis_tilt	pelvis_list	pelvis_rotation	pelvis_tx	pelvis_ty	pelvis_tz	hip_flexion_r	hip_adduction_r	hip_rotation_r	knee_angle_r	ankle_angle_r	subtalar_angle_r	mtp_angle_r	hip_flexion_l	hip_adduction_l	hip_rotation_l	knee_angle_l	ankle_angle_l	subtalar_angle_l	mtp_angle_l	lumbar_extension	lumbar_bending	lumbar_rotation	arm_flex_r	arm_add_r	arm_rot_r	elbow_flex_r	pro_sup_r	wrist_flex_r	wrist_dev_r	arm_flex_l	arm_add_l	arm_rot_l	elbow_flex_l	pro_sup_l	wrist_flex_l	wrist_dev_l
      1.85100000000000000000	     -5.94350921425524610000	      4.58193661886442350000	      2.53077906111887560000	      0.92994148568900903000	      1.03567405293528260000	     -0.33508955868842982000	    -15.12786328295080900000	      3.72272912041597650000	     -0.28397851699779897000	    -68.35099419175425300000	    -11.10641165608368700000	     -0.00000000000026737918	     -0.00000000000020109527	     32.12786086050526500000	      9.66510913832810740000	      2.44212020260052220000	    -13.72502434670294800000	     -7.88443955916991080000	     -0.00000000000003109575	      0.00000000000009037639	     -3.78826442954856630000	     -5.11594689908854420000	     14.55058581801132600000	    -25.95208439668705200000	    -13.89799567970878700000	     -2.93030308800206200000	    126.59759164136425000000	    100.76089276508951000000	      0.00000000000000195206	     -0.00000000000010460629	    -46.35108365972318700000	     -9.94711379284145460000	    -15.55498715399470000000	    126.89602155620875000000	     89.25416752320003900000	      0.00000000000001992847	     -0.00000000000000610653
      1.85200000000000010000	     -5.94715337462379970000	      4.62960569418381950000	      2.55342645872904540000	      0.92985053489497527000	      1.03520109627775250000	     -0.33501348243218204000	    -14.87818219914224100000	      3.67575979131374100000	     -0.35584306461487614000	    -69.10214022497255800000	    -10.87074938675180000000	     -0.00000000000026861931	     -0.00000000000020200909	     32.03414215799621400000	      9.73326227657442190000	      2.43199095959228640000	    -13.64750092278602800000	     -8.00368609741223660000	     -0.00000000000003122778	      0.00000000000009082652	     -3.80151550258106980000	     -5.20048564144384250000	     14.48911233862481800000	    -26.00415697482129900000	    -13.86641681260173800000	     -2.99852642325201040000	    126.36543778306554000000	    100.78428007164644000000	      0.00000000000000197781	     -0.00000000000010508441	    -46.16353072038202000000	     -9.99460832219770980000	    -15.53041018737273900000	    126.77345260639657000000	     89.27027858153603300000	      0.00000000000002005116	     -0.00000000000000616080
      1.85300000000000000000	     -5.95289049103654830000	      4.67356198539523060000	      2.57620611773501200000	      0.92975471444562385000	      1.03471692095423000000	     -0.33493781610974549000	    -14.62268788660067100000	      3.63211518393799260000	     -0.42603370847991673000	    -69.85293993307631400000	    -10.63416808903321900000	     -0.00000000000026985729	     -0.00000000000020292505	     31.94494078501170300000	      9.79850393022702630000	      2.42992787561232730000	    -13.58433141630210300000	     -8.11824391281966310000	     -0.00000000000003136059	      0.00000000000009127372	     -3.81261081844699130000	     -5.28067053429902880000	     14.42664819865462400000	    -26.05621507451439500000	    -13.83599516585915600000	     -3.06739841672306570000	    126.13234136074141000000	    100.80707675441491000000	      0.00000000000000200280	     -0.00000000000010556198	    -45.97361098930579000000	    -10.04311126893272800000	    -15.50439983206780600000	    126.64842326192544000000	     89.28782172553614800000	      0.00000000000002017346	     -0.00000000000000621481
      1.85400000000000010000	     -5.96058867581473260000	      4.71380029331848950000	      2.59917413051290060000	      0.92965418217577134000	      1.03422171349904990000	     -0.33486276195291320000	    -14.36155269207411900000	      3.59177474798920840000	     -0.49470038057841503000	    -70.60323771729601100000	    -10.39683618678219900000	     -0.00000000000027109314	     -0.00000000000020384279	     31.86003976868260100000	      9.86085591554973820000	      2.43589301279073790000	    -13.53542640213932900000	     -8.22741794995544320000	     -0.00000000000003149346	      0.00000000000009171660	     -3.82168541857776890000	     -5.35647161644871160000	     14.36310902672321000000	    -26.10824860332739000000	    -13.80675258244461500000	     -3.13690599682151870000	    125.89837200253885000000	    100.82922225993519000000	      0.00000000000000202754	     -0.00000000000010603967	    -45.78138248140224700000	    -10.09255401081850300000	    -15.47698999803800900000	    126.52093939483018000000	     89.30696082806500200000	      0.00000000000002029617	     -0.00000000000000626890
      1.85500000000000000000	     -5.97011964705250710000	      4.75033092023500280000	      2.62239137191861490000	      0.92954909765508220000	      1.03371565045504110000	     -0.33478853838539779000	    -14.09494704220983000000	      3.55469829100880920000	     -0.56200313397928081000	    -71.35287992106674400000	    -10.15892501873682200000	     -0.00000000000027233257	     -0.00000000000020476017	     31.77923113321900300000	      9.92036249881180330000	      2.44981427441154050000	    -13.50071025704460600000	     -8.33049556339039300000	     -0.00000000000003162645	      0.00000000000009215903	     -3.82887168832904970000	     -5.42787587306341560000	     14.29840453442205300000	    -26.16024947957843900000	    -13.77870816360808200000	     -3.20703685298567720000	    125.66359576355237000000	    100.85065671643831000000	      0.00000000000000205236	     -0.00000000000010651788	    -45.58690524292471500000	    -10.14286917595733000000	    -15.44821541851545100000	    126.39100970549505000000	     89.32785806263328300000	      0.00000000000002041788	     -0.00000000000000632294
      1.85600000000000010000	     -5.98146250888721020000	      4.78309645048094100000	      2.64588235211584610000	      0.92943965775637327000	      1.03319865522434570000	     -0.33471532084165090000	    -13.82291894133729000000	      3.52090723711318440000	     -0.62803307976886735000	    -72.10174316562957100000	     -9.92060639812779850000	     -0.00000000000027357054	     -0.00000000000020567869	     31.70239907214598000000	      9.97703499315670860000	      2.47214136170675940000	    -13.48014623390547900000	     -8.42354413503820430000	     -0.00000000000003175956	      0.00000000000009260331	     -3.83416326082838840000	     -5.49479987557920870000	     14.23249577848699900000	    -26.21225266635830700000	    -13.75189140633205100000	     -3.27778711276648860000	    125.42809389251126000000	    100.87131887969610000000	      0.00000000000000207689	     -0.00000000000010699603	    -45.39028189619242700000	    -10.19398055754689600000	    -15.41810815746106800000	    126.25865258506902000000	     89.35067927020163800000	      0.00000000000002053899	     -0.00000000000000637733
      1.85700000000000000000	     -5.99502919158821260000	      4.81204693580425240000	      2.66983445853066840000	      0.92932575748357527000	      1.03267016423704620000	     -0.33464348261953447000	    -13.54501376494567900000	      3.49041709008802890000	     -0.69301697339535584000	    -72.84982558531048400000	     -9.68202822914396680000	     -0.00000000000027480620	     -0.00000000000020660002	     31.63002284242881900000	     10.03092932152868900000	      2.50265529065902830000	    -13.47389190257879400000	     -8.50667552230633280000	     -0.00000000000003189169	      0.00000000000009304675	     -3.83709583381793620000	     -5.55719506052296010000	     14.16521953379464800000	    -26.26432787365322600000	    -13.72628894672987900000	     -3.34913740552569910000	    125.19188935862056000000	    100.89118196145361000000	      0.00000000000000210180	     -0.00000000000010747419	    -45.19166316200987400000	    -10.24583724229989900000	    -15.38671829243517100000	    126.12385970703436000000	     89.37558406586303800000	      0.00000000000002066005	     -0.00000000000000643214
      1.85800000000000010000	     -6.01060390345952290000	      4.83733801064104620000	      2.69433812385043050000	      0.92920750082194825000	      1.03213061139638510000	     -0.33457330123080437000	    -13.26151601796450000000	      3.46302077652047440000	     -0.75719657329892776000	    -73.59696641313405500000	     -9.44336180149073280000	     -0.00000000000027604044	     -0.00000000000020752502	     31.56182567936683400000	     10.08222586185650500000	      2.54073514962176980000	    -13.48187916404852000000	     -8.58159887240077880000	     -0.00000000000003202250	      0.00000000000009349028	     -3.83792629370188850000	     -5.61520896027094810000	     14.09643581446339600000	    -26.31642692840072700000	    -13.70189860086131100000	     -3.42106834923956440000	    124.95501856095566000000	    100.91019920028357000000	      0.00000000000000212712	     -0.00000000000010795261	    -44.99108020468575800000	    -10.29839089625776600000	    -15.35409025231528600000	    125.98664818776120000000	     89.40271454839791000000	      0.00000000000002078111	     -0.00000000000000648738
      1.85900000000000000000	     -6.02779764569944380000	      4.85912376985777250000	      2.71940914830298830000	      0.92908512904403995000	      1.03158060290170960000	     -0.33450497219676650000	    -12.97291439464933700000	      3.43850845752600430000	     -0.82074481244788544000	    -74.34295856353267600000	     -9.20478852514376910000	     -0.00000000000027727042	     -0.00000000000020845476	     31.49728875006581700000	     10.13110368208219100000	      2.58614857000320470000	    -13.50397817105261600000	     -8.64745085851322240000	     -0.00000000000003215325	      0.00000000000009393378	     -3.83709179309631440000	     -5.66897553467913260000	     14.02606262076963400000	    -26.36849571452636800000	    -13.67873781444896900000	     -3.49356985970227240000	    124.71754354732383000000	    100.92831348318930000000	      0.00000000000000215269	     -0.00000000000010843003	    -44.78855287907459400000	    -10.35158121393065000000	    -15.32026068086503100000	    125.84705302335081000000	     89.43220958409564500000	      0.00000000000002090216	     -0.00000000000000654190
      1.86000000000000010000	     -6.04632510683620690000	      4.87754171378516330000	      2.74508738814120120000	      0.92895884165175147000	      1.03102057839683400000	     -0.33443872850166634000	    -12.67957483099973900000	      3.41668669293501500000	     -0.88384092027259853000	    -75.08762174792522600000	     -8.96648794200874380000	     -0.00000000000027849790	     -0.00000000000020938315	     31.43603316975436400000	     10.17774290207603200000	      2.63864549771496340000	    -13.54011390268393300000	     -8.70337084125206320000	     -0.00000000000003228452	      0.00000000000009437717	     -3.83491256033136190000	     -5.71861398853338980000	     13.95400400438507800000	    -26.42050007788890300000	    -13.65681947458789700000	     -3.56663183617612620000	    124.47951828670939000000	    100.94547753841331000000	      0.00000000000000217831	     -0.00000000000010890616	    -44.58411944715901900000	    -10.40534811084167700000	    -15.28526730655399700000	    125.70510595239575000000	     89.46420376609869200000	      0.00000000000002102379	     -0.00000000000000659605
